<mxfile host="app.diagrams.net" modified="2022-11-29T06:40:18.308Z" agent="5.0 (Macintosh; Intel Mac OS X 10_15_7) AppleWebKit/537.36 (KHTML, like Gecko) Chrome/107.0.0.0 Safari/537.36" etag="iGfhZVM02H4V1qJiX2dl" version="20.6.0" type="github">
  <diagram id="C5RBs43oDa-KdzZeNtuy" name="Page-1">
    <mxGraphModel dx="1426" dy="769" grid="1" gridSize="10" guides="1" tooltips="1" connect="1" arrows="1" fold="1" page="1" pageScale="1" pageWidth="827" pageHeight="1169" math="0" shadow="0">
      <root>
        <mxCell id="WIyWlLk6GJQsqaUBKTNV-0" />
        <mxCell id="WIyWlLk6GJQsqaUBKTNV-1" parent="WIyWlLk6GJQsqaUBKTNV-0" />
        <mxCell id="Y4QRygXmnNIhCg1CO9q6-22" value="" style="group" vertex="1" connectable="0" parent="WIyWlLk6GJQsqaUBKTNV-1">
          <mxGeometry x="120" y="160" width="355" height="350" as="geometry" />
        </mxCell>
        <mxCell id="Y4QRygXmnNIhCg1CO9q6-0" value="上游" style="rounded=0;whiteSpace=wrap;html=1;" vertex="1" parent="Y4QRygXmnNIhCg1CO9q6-22">
          <mxGeometry x="120" width="90" height="30" as="geometry" />
        </mxCell>
        <mxCell id="Y4QRygXmnNIhCg1CO9q6-8" style="edgeStyle=orthogonalEdgeStyle;rounded=0;orthogonalLoop=1;jettySize=auto;html=1;" edge="1" parent="Y4QRygXmnNIhCg1CO9q6-22" source="Y4QRygXmnNIhCg1CO9q6-1" target="Y4QRygXmnNIhCg1CO9q6-0">
          <mxGeometry relative="1" as="geometry" />
        </mxCell>
        <mxCell id="Y4QRygXmnNIhCg1CO9q6-1" value="ssp" style="rounded=0;whiteSpace=wrap;html=1;" vertex="1" parent="Y4QRygXmnNIhCg1CO9q6-22">
          <mxGeometry x="120" y="60" width="90" height="30" as="geometry" />
        </mxCell>
        <mxCell id="Y4QRygXmnNIhCg1CO9q6-5" style="edgeStyle=orthogonalEdgeStyle;rounded=0;orthogonalLoop=1;jettySize=auto;html=1;entryX=0.5;entryY=1;entryDx=0;entryDy=0;" edge="1" parent="Y4QRygXmnNIhCg1CO9q6-22" source="Y4QRygXmnNIhCg1CO9q6-2" target="Y4QRygXmnNIhCg1CO9q6-1">
          <mxGeometry relative="1" as="geometry">
            <Array as="points">
              <mxPoint x="88" y="110" />
              <mxPoint x="165" y="110" />
            </Array>
          </mxGeometry>
        </mxCell>
        <mxCell id="Y4QRygXmnNIhCg1CO9q6-2" value="下游1" style="rounded=0;whiteSpace=wrap;html=1;" vertex="1" parent="Y4QRygXmnNIhCg1CO9q6-22">
          <mxGeometry x="58" y="120" width="60" height="30" as="geometry" />
        </mxCell>
        <mxCell id="Y4QRygXmnNIhCg1CO9q6-7" style="edgeStyle=orthogonalEdgeStyle;rounded=0;orthogonalLoop=1;jettySize=auto;html=1;entryX=0.5;entryY=1;entryDx=0;entryDy=0;" edge="1" parent="Y4QRygXmnNIhCg1CO9q6-22" source="Y4QRygXmnNIhCg1CO9q6-3" target="Y4QRygXmnNIhCg1CO9q6-1">
          <mxGeometry relative="1" as="geometry">
            <Array as="points">
              <mxPoint x="242" y="110" />
              <mxPoint x="165" y="110" />
            </Array>
          </mxGeometry>
        </mxCell>
        <mxCell id="Y4QRygXmnNIhCg1CO9q6-3" value="下游3" style="rounded=0;whiteSpace=wrap;html=1;" vertex="1" parent="Y4QRygXmnNIhCg1CO9q6-22">
          <mxGeometry x="212" y="120" width="60" height="30" as="geometry" />
        </mxCell>
        <mxCell id="Y4QRygXmnNIhCg1CO9q6-6" style="edgeStyle=orthogonalEdgeStyle;rounded=0;orthogonalLoop=1;jettySize=auto;html=1;entryX=0.5;entryY=1;entryDx=0;entryDy=0;" edge="1" parent="Y4QRygXmnNIhCg1CO9q6-22" source="Y4QRygXmnNIhCg1CO9q6-4" target="Y4QRygXmnNIhCg1CO9q6-1">
          <mxGeometry relative="1" as="geometry" />
        </mxCell>
        <mxCell id="Y4QRygXmnNIhCg1CO9q6-4" value="下游2" style="rounded=0;whiteSpace=wrap;html=1;" vertex="1" parent="Y4QRygXmnNIhCg1CO9q6-22">
          <mxGeometry x="135" y="120" width="60" height="30" as="geometry" />
        </mxCell>
        <mxCell id="Y4QRygXmnNIhCg1CO9q6-10" value="媒体1" style="rounded=0;whiteSpace=wrap;html=1;" vertex="1" parent="Y4QRygXmnNIhCg1CO9q6-22">
          <mxGeometry x="70" y="320" width="60" height="30" as="geometry" />
        </mxCell>
        <mxCell id="Y4QRygXmnNIhCg1CO9q6-11" value="媒体3" style="rounded=0;whiteSpace=wrap;html=1;" vertex="1" parent="Y4QRygXmnNIhCg1CO9q6-22">
          <mxGeometry x="283.5" y="320" width="60" height="30" as="geometry" />
        </mxCell>
        <mxCell id="Y4QRygXmnNIhCg1CO9q6-12" value="媒体2" style="rounded=0;whiteSpace=wrap;html=1;" vertex="1" parent="Y4QRygXmnNIhCg1CO9q6-22">
          <mxGeometry x="175" y="320" width="60" height="30" as="geometry" />
        </mxCell>
        <mxCell id="Y4QRygXmnNIhCg1CO9q6-20" style="edgeStyle=orthogonalEdgeStyle;rounded=0;orthogonalLoop=1;jettySize=auto;html=1;entryX=0.5;entryY=1;entryDx=0;entryDy=0;strokeColor=#FF3333;" edge="1" parent="Y4QRygXmnNIhCg1CO9q6-22" source="Y4QRygXmnNIhCg1CO9q6-13" target="Y4QRygXmnNIhCg1CO9q6-2">
          <mxGeometry relative="1" as="geometry">
            <Array as="points">
              <mxPoint x="30" y="210" />
              <mxPoint x="88" y="210" />
            </Array>
          </mxGeometry>
        </mxCell>
        <mxCell id="Y4QRygXmnNIhCg1CO9q6-21" style="edgeStyle=orthogonalEdgeStyle;rounded=0;orthogonalLoop=1;jettySize=auto;html=1;entryX=0.5;entryY=1;entryDx=0;entryDy=0;strokeColor=#FF3333;" edge="1" parent="Y4QRygXmnNIhCg1CO9q6-22" source="Y4QRygXmnNIhCg1CO9q6-13" target="Y4QRygXmnNIhCg1CO9q6-4">
          <mxGeometry relative="1" as="geometry">
            <Array as="points">
              <mxPoint x="30" y="210" />
              <mxPoint x="165" y="210" />
            </Array>
          </mxGeometry>
        </mxCell>
        <mxCell id="Y4QRygXmnNIhCg1CO9q6-13" value="广告位1a" style="rounded=0;whiteSpace=wrap;html=1;" vertex="1" parent="Y4QRygXmnNIhCg1CO9q6-22">
          <mxGeometry y="260" width="60" height="30" as="geometry" />
        </mxCell>
        <mxCell id="Y4QRygXmnNIhCg1CO9q6-18" style="edgeStyle=orthogonalEdgeStyle;rounded=0;orthogonalLoop=1;jettySize=auto;html=1;entryX=0.5;entryY=1;entryDx=0;entryDy=0;" edge="1" parent="Y4QRygXmnNIhCg1CO9q6-22" source="Y4QRygXmnNIhCg1CO9q6-10" target="Y4QRygXmnNIhCg1CO9q6-13">
          <mxGeometry relative="1" as="geometry">
            <Array as="points">
              <mxPoint x="100" y="310" />
              <mxPoint x="30" y="310" />
            </Array>
          </mxGeometry>
        </mxCell>
        <mxCell id="Y4QRygXmnNIhCg1CO9q6-14" value="广告位1c" style="rounded=0;whiteSpace=wrap;html=1;" vertex="1" parent="Y4QRygXmnNIhCg1CO9q6-22">
          <mxGeometry x="140" y="260" width="60" height="30" as="geometry" />
        </mxCell>
        <mxCell id="Y4QRygXmnNIhCg1CO9q6-19" style="edgeStyle=orthogonalEdgeStyle;rounded=0;orthogonalLoop=1;jettySize=auto;html=1;entryX=0.5;entryY=1;entryDx=0;entryDy=0;" edge="1" parent="Y4QRygXmnNIhCg1CO9q6-22" source="Y4QRygXmnNIhCg1CO9q6-10" target="Y4QRygXmnNIhCg1CO9q6-14">
          <mxGeometry relative="1" as="geometry">
            <Array as="points">
              <mxPoint x="100" y="310" />
              <mxPoint x="170" y="310" />
            </Array>
          </mxGeometry>
        </mxCell>
        <mxCell id="Y4QRygXmnNIhCg1CO9q6-15" value="广告位1b" style="rounded=0;whiteSpace=wrap;html=1;" vertex="1" parent="Y4QRygXmnNIhCg1CO9q6-22">
          <mxGeometry x="70" y="260" width="60" height="30" as="geometry" />
        </mxCell>
        <mxCell id="Y4QRygXmnNIhCg1CO9q6-17" style="edgeStyle=orthogonalEdgeStyle;rounded=0;orthogonalLoop=1;jettySize=auto;html=1;entryX=0.5;entryY=1;entryDx=0;entryDy=0;" edge="1" parent="Y4QRygXmnNIhCg1CO9q6-22" source="Y4QRygXmnNIhCg1CO9q6-10" target="Y4QRygXmnNIhCg1CO9q6-15">
          <mxGeometry relative="1" as="geometry" />
        </mxCell>
        <mxCell id="Y4QRygXmnNIhCg1CO9q6-23" value="&lt;font color=&quot;#ff3333&quot;&gt;导致结果，广告位1a流量重复&lt;/font&gt;" style="text;html=1;align=center;verticalAlign=middle;resizable=0;points=[];autosize=1;strokeColor=none;fillColor=none;" vertex="1" parent="Y4QRygXmnNIhCg1CO9q6-22">
          <mxGeometry x="175" y="210" width="180" height="30" as="geometry" />
        </mxCell>
      </root>
    </mxGraphModel>
  </diagram>
</mxfile>
